<svg width="776" height="185" viewBox="0 0 776 185" fill="none" xmlns="http://www.w3.org/2000/svg">
<g clip-path="url(#clip0_122_13689)">
<path d="M154.045 55.9957L155.945 52.4337L151.874 51.5121L146.323 54.2023L139.465 49.9179L140.871 46.0321L138.503 41.6979L135.073 43.4913L134.777 49.3948L129.399 53.8286L126.34 50.3164L122.689 49.0959L121.332 51.6366L128.24 58.7357V58.7855L112.574 63.8172L108.231 57.8888L110.254 50.5655L114.3 42.3455L115.879 32.332L119.629 24.1369L110.477 21.1977L100.978 8.09548L85.7809 18.5075L78.577 21.2226L80.0572 29.7664L84.0539 45.8079V45.8577L68.0918 44.4628L63.651 27.4499L64.0951 27.5495L65.9208 28.0228L73.2234 29.8411L74.7283 27.3751L71.8665 24.7846L67.549 24.0871L67.179 22.6175L68.4125 16.9382L73.322 13.7249L73.1494 9.81421L68.2645 9.91384L64.9586 13.8993L58.7168 9.71457L58.5441 9.34093L58.0507 3.06383L55.2382 -0.0498047L53.1412 3.38765L54.8188 9.56511L51.2909 15.6678L46.9981 14.796L42.5574 12.5791L38.9801 15.1198L40.7811 18.1339L49.7366 18.358L56.003 25.0337C56.2744 25.3326 56.4471 25.507 56.4718 25.5568L57.7053 48.4732C57.7053 48.4732 72.3599 49.6439 81.2414 50.3413L79.9339 52.4586L69.4734 63.7923L63.8977 86.6837L35.6988 61.6501L36.7597 96.747L13.5443 67.6034H13.6184L17.6891 69.3968L26.694 73.4321L28.5936 71.265L26.2252 68.2012L21.8831 66.6817H21.291L24.6216 62.5966L30.4686 62.2977L32.2449 58.8354L27.9522 56.4441L23.8321 57.9635L19.8108 51.1384V51.0388L22.4999 45.3595L21.5871 41.2495L18.0591 43.1675L16.4062 49.5442L10.4358 52.9319L7.10522 49.9428L4.36674 45.783L0.0246582 46.1815L0.098671 49.6937L7.74667 54.4015L8.16607 67.4539L45.962 118.343L46.9981 85.3386L47.4422 86.2603L69.6214 112.49L103.963 128.332L66.1428 125.268L58.1741 129.901L87.9026 164.724L90.6657 173.915L86.373 181.861L88.0753 184.925L92.0473 183.082L92.368 178.1L93.7496 173.965L100.781 173.891L105.246 178.449L109.243 178.349L107.985 174.314L102.829 170.752L102.582 170.403L102.187 164.176L101.151 163.03L107.171 161.959L109.687 157.725L106.43 155.607L101.225 158.297L95.3779 156.479H95.3285L94.7364 155.807H94.6624L96.1427 151.871L95.3532 148.06L92.4914 148.135L90.5917 154.985L89.8763 157.6H89.8269L72.878 134.435L94.8845 135.78L108.799 135.531L110.97 128.905L77.5655 99.1134C77.8615 98.939 91.8746 87.8296 91.8746 87.8296C91.8746 87.8296 104.506 72.7097 104.506 72.5852C104.506 72.4855 105.641 67.9272 106.455 64.6641L113.141 74.4285L133.371 64.0663L142.943 66.333L147.606 74.0548L151.085 74.1295L151.48 69.7455L147.36 66.9806L144.448 63.6677L147.927 57.5401L154.07 55.921L154.045 55.9957Z" fill="#339999"/>
<path d="M211.479 148.782V43.9895H225.863L289.316 129.752L286.948 131.097C286.553 128.606 286.208 125.891 285.912 122.951C285.616 120.012 285.344 116.874 285.098 113.511C284.851 110.173 284.654 106.636 284.506 102.875C284.357 99.1383 284.234 95.2276 284.135 91.1176C284.037 87.0325 283.987 82.7979 283.987 78.389V43.9646H299.999V148.732H285.32L222.902 66.1088L224.53 64.0164C225.024 70.0943 225.443 75.2754 225.789 79.5099C226.134 83.7445 226.43 87.3563 226.677 90.2956C226.923 93.2348 227.096 95.6261 227.195 97.4694C227.294 99.3127 227.368 100.832 227.417 102.028C227.466 103.223 227.491 104.27 227.491 105.166V148.732H211.479V148.782Z" fill="#071435"/>
<path d="M352.449 150.277C346.923 150.277 342.087 148.981 337.992 146.391C333.897 143.8 330.739 140.164 328.494 135.456C326.273 130.773 325.163 125.168 325.163 118.692V70.1939H340.434V114.507C340.434 119.091 341.15 123.076 342.581 126.414C344.012 129.752 346.084 132.317 348.798 134.111C351.512 135.904 354.793 136.801 358.666 136.801C361.528 136.801 364.143 136.328 366.512 135.381C368.88 134.435 370.928 133.114 372.655 131.421C374.382 129.727 375.739 127.684 376.725 125.293C377.712 122.902 378.206 120.311 378.206 117.521V70.2188H393.477V148.807H378.206V132.342L380.87 130.549C379.686 134.235 377.688 137.573 374.875 140.587C372.063 143.601 368.732 145.943 364.859 147.686C360.985 149.43 356.865 150.302 352.4 150.302L352.449 150.277Z" fill="#071435"/>
<path d="M455.796 150.277C452.441 150.277 449.11 149.729 445.779 148.633C442.473 147.537 439.464 146.067 436.725 144.224C434.011 142.381 431.742 140.338 429.916 138.096C428.09 135.854 426.881 133.588 426.289 131.296L430.138 129.204V148.359H414.867V38.0113H430.138V88.1534L427.77 86.8083C428.263 84.5166 429.349 82.2997 431.026 80.1575C432.704 78.0154 434.85 76.0725 437.465 74.3288C440.08 72.5852 442.918 71.1903 446.001 70.1441C449.061 69.0979 452.169 68.5748 455.352 68.5748C462.358 68.5748 468.6 70.3184 474.028 73.8057C479.455 77.293 483.773 82.1254 486.931 88.253C490.088 94.3807 491.667 101.405 491.667 109.276C491.667 117.148 490.113 124.197 487.005 130.374C483.896 136.552 479.603 141.434 474.176 144.971C468.748 148.508 462.605 150.277 455.796 150.277ZM453.255 136.203C457.794 136.203 461.865 135.032 465.417 132.691C468.97 130.349 471.783 127.161 473.855 123.101C475.927 119.066 476.963 114.457 476.963 109.251C476.963 104.045 475.952 99.5867 473.929 95.5514C471.906 91.5161 469.118 88.3526 465.541 86.0361C461.988 83.7445 457.868 82.5986 453.23 82.5986C448.592 82.5986 444.472 83.7445 440.919 86.0361C437.367 88.3277 434.554 91.4912 432.482 95.5514C430.409 99.5867 429.373 104.17 429.373 109.251C429.373 114.333 430.409 119.066 432.482 123.101C434.554 127.136 437.367 130.325 440.919 132.691C444.472 135.032 448.567 136.203 453.23 136.203H453.255Z" fill="#071435"/>
<path d="M544.587 150.277C536.593 150.277 529.488 148.558 523.32 145.121C517.153 141.683 512.292 136.975 508.789 130.972C505.286 124.994 503.534 118.094 503.534 110.322C503.534 104.145 504.521 98.4907 506.495 93.4092C508.468 88.3277 511.207 83.8939 514.735 80.1576C518.238 76.4212 522.432 73.5317 527.342 71.4643C532.226 69.4217 537.555 68.4005 543.279 68.4005C548.312 68.4005 553.024 69.3719 557.366 71.3148C561.708 73.2577 565.483 75.923 568.715 79.3106C571.922 82.6983 574.389 86.7087 576.116 91.3667C577.843 95.9998 578.657 101.081 578.559 106.561L578.41 113.137H514.809L511.404 100.857H565.212L562.991 103.398V99.8108C562.695 96.5228 561.61 93.5836 559.735 90.9681C557.86 88.3776 555.491 86.335 552.629 84.8405C549.768 83.3459 546.659 82.5986 543.279 82.5986C537.95 82.5986 533.435 83.6199 529.784 85.6625C526.133 87.705 523.37 90.6941 521.495 94.6547C519.62 98.5903 518.682 103.472 518.682 109.251C518.682 114.731 519.817 119.514 522.087 123.549C524.356 127.585 527.564 130.698 531.733 132.915C535.878 135.107 540.689 136.203 546.116 136.203C549.965 136.203 553.542 135.555 556.873 134.26C560.179 132.965 563.756 130.623 567.629 127.236L575.327 138.171C572.958 140.562 570.072 142.655 566.642 144.448C563.238 146.241 559.636 147.661 555.812 148.707C552.013 149.754 548.263 150.277 544.611 150.277H544.587Z" fill="#071435"/>
<path d="M639.175 148.782V70.1939H654.446V148.782H639.175Z" fill="#071435"/>
<path d="M646.576 52.8322C643.32 52.8322 640.803 51.9853 639.027 50.2915C637.251 48.5977 636.363 46.2064 636.363 43.1177C636.363 40.2282 637.275 37.8868 639.101 36.0933C640.927 34.2999 643.418 33.4031 646.576 33.4031C649.734 33.4031 652.349 34.25 654.126 35.9439C655.902 37.6377 656.79 40.029 656.79 43.1177C656.79 46.0071 655.877 48.3486 654.052 50.1421C652.226 51.9355 649.734 52.8322 646.576 52.8322Z" fill="#339999"/>
<path d="M725.153 150.277C717.851 150.277 711.091 148.932 704.923 146.241C698.755 143.551 693.352 139.79 688.764 134.933C684.175 130.1 680.622 124.396 678.081 117.87C675.565 111.344 674.306 104.17 674.306 96.3983C674.306 88.6266 675.565 81.4528 678.081 74.9266C680.597 68.4004 684.15 62.6963 688.764 57.8639C693.352 53.0315 698.755 49.2453 704.923 46.5551C711.091 43.865 717.851 42.5199 725.153 42.5199C732.456 42.5199 739.216 43.865 745.383 46.5551C751.551 49.2453 756.954 53.0315 761.543 57.9386C766.132 62.8208 769.684 68.5499 772.225 75.0761C774.742 81.6023 776 88.7263 776 96.3983C776 104.07 774.742 111.194 772.225 117.72C769.709 124.247 766.156 129.976 761.543 134.858C756.954 139.74 751.551 143.551 745.383 146.241C739.216 148.932 732.456 150.277 725.153 150.277ZM725.153 134.559C730.186 134.559 734.824 133.613 739.018 131.719C743.212 129.826 746.839 127.161 749.923 123.724C752.982 120.286 755.375 116.251 757.102 111.593C758.829 106.96 759.693 101.878 759.693 96.3983C759.693 90.9183 758.829 85.8368 757.102 81.2037C755.375 76.5706 752.982 72.5104 749.923 69.073C746.864 65.6355 743.237 62.9703 739.018 61.0772C734.824 59.1841 730.186 58.2375 725.153 58.2375C720.12 58.2375 715.482 59.1841 711.288 61.0772C707.094 62.9703 703.443 65.6106 700.31 68.9983C697.201 72.3859 694.808 76.3963 693.13 81.0543C691.453 85.6874 690.614 90.8186 690.614 96.3983C690.614 101.978 691.453 106.985 693.13 111.668C694.808 116.35 697.201 120.411 700.31 123.798C703.418 127.186 707.069 129.826 711.288 131.719C715.482 133.613 720.12 134.559 725.153 134.559Z" fill="#071435"/>
</g>
<defs>
<clipPath id="clip0_122_13689">
<rect width="776" height="185" fill="white"/>
</clipPath>
</defs>
</svg>
