<svg width="80" height="36" viewBox="0 0 80 36" fill="none" xmlns="http://www.w3.org/2000/svg">
<path d="M48.1497 7.00195H41.3539H39.2203V7.81493C39.6418 7.86738 39.9842 7.89361 40.2739 7.97228C40.6163 8.05096 40.8534 8.15586 41.0378 8.31321C41.5646 8.75903 41.5646 9.62446 41.5646 11.1455V21.452C41.5646 23.55 41.749 26.5134 38.7725 26.461C37.4818 26.4347 36.1912 25.5431 35.7697 23.8909H34.7424C35.1639 26.6708 36.6653 28.559 40.2739 28.559C43.3294 28.559 46.0688 27.1428 46.0688 22.3961V14.3974V11.1455C46.0688 9.59823 46.0688 8.81148 46.5956 8.33943C46.9381 8.05096 47.2015 7.91983 48.1497 7.81493V7.02818V7.00195Z" fill="#F3F4F6"/>
<path d="M58.4222 7.00195H49.4928V7.76248V7.81493C50.4147 7.8936 50.7308 8.05096 51.0469 8.33943C51.4683 8.70658 51.5474 9.28353 51.5474 10.3063C51.5474 10.621 51.5474 10.9357 51.5474 11.3291V23.6549C51.5474 24.022 51.5474 24.3629 51.5474 24.6776C51.521 25.6742 51.4683 26.3036 51.0469 26.6445C50.7045 26.933 50.4411 27.0641 49.4928 27.169V27.2215V27.982H58.4222H58.4485H62.9791L64.4015 23.8647H63.3742C62.3469 26.12 60.7402 26.3823 59.2651 26.3823C58.0534 26.3823 57.2632 26.3036 56.7101 25.9627C56.2623 25.6742 56.1042 24.9137 56.0779 23.6024V11.3815V11.1455C56.0779 9.59823 56.0779 8.75903 56.6047 8.31321C56.9471 8.02473 57.5003 7.91983 58.4485 7.84115L58.4222 7.00195Z" fill="#F3F4F6"/>
<path d="M73.2779 7.00195H64.3485V7.76248V7.81493C65.2704 7.8936 65.5865 8.05096 65.9026 8.33943C66.324 8.70658 66.4031 9.28353 66.4031 10.3063C66.4031 10.621 66.4031 10.9357 66.4031 11.3291V23.6549C66.4031 24.022 66.4031 24.3629 66.4031 24.6776C66.3767 25.6742 66.324 26.3036 65.9026 26.6445C65.5602 26.933 65.2968 27.0641 64.3485 27.169V27.2215V27.982H73.2779H73.3043H77.8348L79.2572 23.8647H78.2299C77.2026 26.12 75.5959 26.3823 74.1208 26.3823C72.9092 26.3823 72.1189 26.3036 71.5658 25.9627C71.118 25.6742 70.96 24.9137 70.9336 23.6024V11.3815V11.1455C70.9336 9.59823 70.9336 8.75903 71.4604 8.31321C71.8029 8.02473 72.356 7.91983 73.3043 7.84115V7.00195H73.2779Z" fill="#F3F4F6"/>
<path d="M13.3531 34.3542C13.7745 34.1706 14.1696 33.9346 14.5647 33.6723C14.6437 33.6199 14.7228 33.5674 14.8018 33.515C15.2759 33.1741 15.6974 32.7807 16.1188 32.3086C16.6456 31.7579 17.1197 31.1285 17.5675 30.4729C17.9099 29.9746 18.1997 29.4239 18.4894 28.8731C19.5694 26.7227 20.2806 24.3624 20.6494 22.0284C20.8864 20.5073 20.9918 18.9863 20.9918 17.4915C20.9918 15.9966 20.8864 14.4756 20.6494 12.9545C20.2806 10.6205 19.5957 8.23402 18.4894 6.10979C18.3577 5.87376 18.226 5.61151 18.0943 5.37549C17.5148 6.42449 17.0407 7.55217 16.6456 8.7323C17.3568 10.8303 17.7782 13.0594 17.9363 15.2623C17.989 15.9966 18.0153 16.7834 18.0153 17.5177C18.0153 18.252 17.989 19.0387 17.9363 19.773C17.7519 22.4742 17.1988 25.1754 16.1451 27.693C15.75 28.6633 15.2759 29.6074 14.6964 30.4991C14.5647 30.7089 14.4594 30.9187 14.3013 31.1285C14.0116 31.5481 13.7218 31.9415 13.4057 32.3611C13.037 32.8069 12.6419 33.2527 12.1941 33.6723C11.7463 34.1182 11.2722 34.5115 10.7453 34.8787C10.6927 34.9049 10.6663 34.9311 10.6136 34.9574V35.0098C11.5356 34.9836 12.5102 34.7476 13.3531 34.3542Z" fill="#F3F4F6"/>
<path d="M18.8328 34.356C19.2542 34.1724 19.6493 33.9364 20.0444 33.6741C20.1234 33.6217 20.2025 33.5692 20.2815 33.5168C21.8883 32.3104 23.0736 30.6845 23.9691 28.9274C25.0491 26.777 25.7603 24.4167 26.1291 22.0827C26.3661 20.5616 26.4715 19.0406 26.4715 17.5457C26.4715 16.0509 26.3661 14.5298 26.1291 13.0088C25.7603 10.6748 25.0754 8.28828 23.9691 6.16405C23.1526 4.5381 22.0463 3.01704 20.6239 1.83691C20.1761 2.30897 19.7547 2.83347 19.3596 3.38419C19.4913 3.56777 19.623 3.75134 19.7547 3.93492C22.02 7.29173 23.1263 11.2779 23.3897 15.2904C23.4423 16.0247 23.4687 16.8114 23.4687 17.5457C23.4687 18.28 23.4423 19.0668 23.3897 19.8011C23.1263 23.8135 22.02 27.826 19.7547 31.1565C19.4649 31.5761 19.1752 31.9695 18.8591 32.3891C18.4903 32.8349 18.0952 33.2808 17.6474 33.7004C17.1997 34.1462 16.7255 34.5396 16.1987 34.9067C16.146 34.9329 16.1197 34.9592 16.067 34.9854V35.0378C17.0416 34.9854 17.9899 34.7494 18.8328 34.356Z" fill="#F3F4F6"/>
<path d="M25.7858 33.4894C27.3925 32.2831 28.5778 30.6571 29.4734 28.9C30.5534 26.7496 31.2646 24.3893 31.6333 22.0553C31.8704 20.5342 31.9758 19.0132 31.9758 17.5183C31.9758 16.0235 31.8704 14.5025 31.6333 12.9814C31.2646 10.6474 30.5797 8.2609 29.4734 6.13667C28.5778 4.37959 27.3662 2.70118 25.7858 1.54728C24.5741 0.603177 23.0727 0.0262251 21.5976 0V0.0524501C23.0464 1.049 24.2844 2.43893 25.2326 3.90753C27.4979 7.26434 28.6042 11.2506 28.8676 15.263C28.9203 15.9973 28.9466 16.784 28.9466 17.5183C28.9466 18.2526 28.9203 19.0394 28.8676 19.7737C28.6042 23.7861 27.4979 27.7986 25.2326 31.1292C24.258 32.5715 23.02 33.9615 21.5713 34.9842V35.0367C23.0727 34.9842 24.5741 34.4073 25.7858 33.4894Z" fill="#F3F4F6"/>
<path d="M18.832 0.655627C18.4105 0.839202 18.0154 1.07523 17.6203 1.33748C17.5413 1.38993 17.4623 1.44238 17.3832 1.49483C16.9355 1.83575 16.4877 2.22913 16.0662 2.67496C15.5394 3.22568 15.0653 3.85508 14.6175 4.51071C14.2751 5.00899 13.9853 5.55971 13.6956 6.11044C12.6156 8.26089 11.9044 10.6212 11.5357 12.9552C11.2986 14.4762 11.1932 15.9973 11.1932 17.4921C11.1932 18.9869 11.2986 20.508 11.5357 22.0291C11.9044 24.3631 12.5893 26.7496 13.6956 28.8738C13.8273 29.1098 13.959 29.3721 14.0907 29.6081C14.6702 28.5591 15.1443 27.4314 15.5394 26.2513C14.8282 24.1533 14.4068 21.9242 14.2487 19.7212C14.196 18.9869 14.1697 18.2002 14.1697 17.4659C14.1697 16.7316 14.196 15.9448 14.2487 15.2105C14.4331 12.5094 14.9863 9.80817 16.0399 7.29057C16.4613 6.34647 16.9355 5.37614 17.5149 4.48449C17.6466 4.27469 17.752 4.06488 17.91 3.85508C18.1998 3.43548 18.4895 3.04211 18.8056 2.62251C19.1744 2.17668 19.5695 1.73085 20.0173 1.31125C20.4651 0.865427 20.9392 0.472051 21.466 0.1049C21.5187 0.0786752 21.545 0.0524501 21.5977 0.0262251V0C20.6495 0.0262251 19.7275 0.262251 18.832 0.655627Z" fill="#F3F4F6"/>
<path d="M13.3534 0.655627C12.932 0.839202 12.5369 1.07523 12.1418 1.33748C12.0628 1.38993 11.9837 1.44238 11.9047 1.49483C10.3243 2.70118 9.13898 4.32714 8.21706 6.08422C7.13711 8.23467 6.42591 10.5949 6.05715 12.929C5.82008 14.4762 5.71472 15.9711 5.71472 17.4921C5.71472 18.9869 5.82008 20.508 6.05715 22.0291C6.42591 24.3631 7.11077 26.7496 8.21706 28.8738C9.03362 30.4998 10.1399 32.0208 11.5623 33.2009C12.0101 32.7289 12.4315 32.2044 12.8266 31.6537C12.6949 31.4701 12.5632 31.2865 12.4315 31.1029C10.1663 27.7461 9.05996 23.7599 8.79655 19.7475C8.74387 19.0132 8.71753 18.2264 8.71753 17.4921C8.71753 16.7578 8.74387 15.9711 8.79655 15.2368C9.05996 11.2243 10.1663 7.21189 12.4315 3.88131C12.7213 3.46171 13.011 3.06833 13.3271 2.64873C13.6959 2.20291 14.091 1.75708 14.5388 1.33748C14.9866 0.917877 15.4607 0.524501 15.9612 0.183575C16.0138 0.15735 16.0402 0.131125 16.0929 0.1049V0C15.1709 0.0262251 14.2227 0.262251 13.3534 0.655627Z" fill="#F3F4F6"/>
<path d="M6.42597 1.52105C4.8192 2.72741 3.63388 4.35336 2.7383 6.11044C1.65835 8.26089 0.947154 10.6212 0.578388 12.9552C0.341324 14.5025 0.235962 15.9973 0.235962 17.5183C0.235962 19.0132 0.341324 20.5342 0.578388 22.0553C0.947154 24.3893 1.63201 26.7758 2.7383 28.9C3.63388 30.6571 4.84554 32.3355 6.42597 33.4894C7.63763 34.3548 9.11269 34.958 10.6141 35.0105V34.958C9.13903 33.9615 7.92737 32.5715 6.95277 31.1029C4.6875 27.7461 3.5812 23.7599 3.31779 19.7475C3.26511 19.0132 3.23877 18.2264 3.23877 17.4921C3.23877 16.7578 3.26511 15.9711 3.31779 15.2368C3.5812 11.2243 4.6875 7.21189 6.95277 3.88131C7.90103 2.43893 9.13903 1.049 10.6141 0.0524501V0C9.11269 0.0262251 7.61129 0.603176 6.42597 1.52105Z" fill="#F3F4F6"/>
<path d="M17.067 33.2267C17.5148 32.7546 17.9362 32.2301 18.3313 31.6794C18.1996 31.4958 18.0679 31.3122 17.9362 31.1287C17.8045 30.9189 17.6728 30.7091 17.5411 30.4993C17.1197 31.1287 16.6456 31.7843 16.0924 32.335C16.3822 32.6497 16.7509 32.9382 17.067 33.2267Z" fill="#F3F4F6"/>
<path d="M20.0434 33.6741C19.6747 33.9363 19.2796 34.1461 18.8318 34.3559C19.6747 34.7493 20.6493 34.9853 21.5712 35.0116V34.9591C21.0444 34.592 20.5176 34.1461 20.0434 33.6741Z" fill="#F3F4F6"/>
<path d="M15.5918 34.9851C15.7499 34.9589 15.8816 34.9327 16.0396 34.9327C15.8816 34.8278 15.7499 34.7229 15.5918 34.618C15.2231 34.3295 14.8807 34.041 14.5646 33.7263C14.1958 33.9886 13.8007 34.1984 13.3529 34.4082C13.9061 34.6704 14.5382 34.854 15.1441 34.9589C15.3021 34.9327 15.4338 34.9589 15.5918 34.9851ZM16.0923 35.0113V34.9589C16.066 34.9327 16.0396 34.9327 16.0133 34.9064C15.8552 34.9327 15.7235 34.9589 15.5655 34.9589C15.7499 35.0113 15.9343 35.0113 16.0923 35.0113Z" fill="#F3F4F6"/>
<path d="M15.1447 1.80884C14.6969 2.28089 14.2755 2.80539 13.8804 3.35612C14.0121 3.53969 14.1438 3.72327 14.2755 3.90684C14.4072 4.11664 14.5389 4.32644 14.6706 4.53625C15.092 3.90684 15.5662 3.25122 16.1193 2.70049C15.8032 2.35956 15.4871 2.07109 15.1447 1.80884Z" fill="#F3F4F6"/>
<path d="M12.1414 1.3637C12.5102 1.10145 12.9053 0.891652 13.3531 0.681852C12.5102 0.262251 11.5356 0.0262251 10.6136 0V0.0524501C11.1668 0.419601 11.6673 0.865427 12.1414 1.3637Z" fill="#F3F4F6"/>
<path d="M18.8318 0.655627C18.2787 0.393376 17.6465 0.209801 17.0407 0.1049C16.8826 0.0786752 16.7509 0.0524501 16.5929 0.0524501C16.4348 0.0262251 16.2768 0 16.0924 0V0.0524501C16.1187 0.0786752 16.1451 0.0786752 16.1714 0.1049C16.3295 0.209801 16.4612 0.314701 16.6192 0.419601C16.988 0.708077 17.3304 0.996553 17.6465 1.31125C18.0416 1.07523 18.4367 0.839202 18.8318 0.655627Z" fill="#F3F4F6"/>
</svg>
